# xmcd CD database file
#
# Track frame offsets:
#	150
#	10295
#	24455
#	33085
#	58385
#	71612
#	84446
#	92349
#	112034
#	121937
#	132938
#	147619
#	159154
#	172837
#	189796
#	204000
#	219949
#	232151
#	244996
#	262751
#	279177
#	297441
#	312857
#	330589
#
# Disc length: 4574 seconds
#
# Revision: 1
# Processed by: cddbd v1.5.1PL2 Copyright (c) Steve Scherf et al.
# Submitted via: CDex 1.51
#
DISCID=4511dc18
DTITLE=George Melly - The Pye Jazz Anthology - Disc 1
DYEAR=2002
DGENRE=Jazz
TTITLE0=There'll Be Some Changes Made
TTITLE1=Sweet Lorraine
TTITLE2=After Your've Gone
TTITLE3=Mama Don't Allow
TTITLE4=Ise A Muggin
TTITLE5=Run Come See Jerusalem
TTITLE6=Riverboat Shuffle
TTITLE7=Rockin' Chair
TTITLE8=Lazy River
TTITLE9=The Old Music Master
TTITLE10=The Nearness Of You
TTITLE11=Lazybones
TTITLE12=Georgia On My Mind
TTITLE13=Ain't Misbehavin'
TTITLE14=I'm Gonna Sit Right Down And Write Myself A Letter
TTITLE15=Your Feet's Too Big
TTITLE16=My Verg Good Friend The Milkman
TTITLE17=The Joint Is Jumpin'
TTITLE18=Blue Turning Grey Over You
TTITLE19=Honeysuckle Rose
TTITLE20=Let's Do It
TTITLE21=I Want My Fanny Brown
TTITLE22=You're Driving Me Crazy
TTITLE23=Was I Drunk?
EXTD=YEAR: 2002
EXTT0=
EXTT1=
EXTT2=
EXTT3=
EXTT4=
EXTT5=
EXTT6=
EXTT7=
EXTT8=
EXTT9=
EXTT10=
EXTT11=
EXTT12=
EXTT13=
EXTT14=
EXTT15=
EXTT16=
EXTT17=
EXTT18=
EXTT19=
EXTT20=
EXTT21=
EXTT22=
EXTT23=
PLAYORDER=
